PathFileType	4	(X/Y/Z)	E:\3-PhD\Data\MocapData\ElaboratedData\009\pre\dynamicElaborations\Run_baseline3\Run_baseline3.trc
DataRate	CameraRate	NumFrames	NumMarkers	Units	OrigDataRate	DataStartFrame
200	200	4	54	mm	200	687
Frame#	Time	FHD			LBHD			RBHD			C7			T10			CLAV			LSHO			LUUPA			LMUPA			LDUPA			LLEP			LMEP			LRAD			LUL			LRFIN			RSHO			RUPA1			RMUPA			RDUPA			RLEP			RMEP			RRAD			RUL			RUFIN			RASI			USACR			LSACR			RSACR			LTHI1			LTHI2			LTHI3			LTHI4			LTIB1			LTIB2			LTIB3			LTIB4			LLMAL			LHEE			LMT1			LMT2			RTHI			RTHI2			RTHI3			RTHI4			RLFC			RTIB1			RTIB2			RTIB3			RTIB4			RLMAL			RHEE			RMT1			RMT2			RMT5		
		X1	Y1	Z1	X2	Y2	Z2	X3	Y3	Z3	X4	Y4	Z4	X5	Y5	Z5	X6	Y6	Z6	X7	Y7	Z7	X8	Y8	Z8	X9	Y9	Z9	X10	Y10	Z10	X11	Y11	Z11	X12	Y12	Z12	X13	Y13	Z13	X14	Y14	Z14	X15	Y15	Z15	X16	Y16	Z16	X17	Y17	Z17	X18	Y18	Z18	X19	Y19	Z19	X20	Y20	Z20	X21	Y21	Z21	X22	Y22	Z22	X23	Y23	Z23	X24	Y24	Z24	X25	Y25	Z25	X26	Y26	Z26	X27	Y27	Z27	X28	Y28	Z28	X29	Y29	Z29	X30	Y30	Z30	X31	Y31	Z31	X32	Y32	Z32	X33	Y33	Z33	X34	Y34	Z34	X35	Y35	Z35	X36	Y36	Z36	X37	Y37	Z37	X38	Y38	Z38	X39	Y39	Z39	X40	Y40	Z40	X41	Y41	Z41	X42	Y42	Z42	X43	Y43	Z43	X44	Y44	Z44	X45	Y45	Z45	X46	Y46	Z46	X47	Y47	Z47	X48	Y48	Z48	X49	Y49	Z49	X50	Y50	Z50	X51	Y51	Z51	X52	Y52	Z52	X53	Y53	Z53	X54	Y54	Z54	

708	3.535000	-439.790660	1330.595610	701.996226	-545.806125	1351.924965	538.179158	-579.911406	1326.956619	658.968338	-632.549563	1242.274085	584.206829	-891.390847	1003.618428	552.808391	-573.375588	1093.145254	577.068949	-540.552364	1186.272097	477.189401	-455.624893	1068.674047	366.094287	-416.607146	1062.604329	394.484606	-407.102307	1019.743347	354.072936	-324.642399	925.735942	344.857809	-347.355252	876.613253	400.260369	-203.066296	1043.996755	536.026275	-141.971516	1009.526545	510.362515	-171.564088	1106.763712	527.871607	-594.647956	1123.398276	747.017784	-753.156727	1030.914572	804.606256	-762.811370	992.227363	779.029666	-813.676497	998.900203	809.858995	-939.572581	942.370145	800.897745	-961.838394	972.395721	740.359559	-961.354521	698.507290	711.114057	-1027.240321	710.740708	730.030039	-967.742043	634.335856	754.385017	-781.408096	762.393407	607.497237	-943.214136	899.224190	530.300085	-948.280673	879.555686	493.964437	-952.737546	859.525315	548.714636	-739.629813	677.837534	232.697084	-679.209761	621.099182	213.117027	-637.644653	630.724229	235.079362	-686.311482	562.819245	194.480965	-654.706607	280.771623	126.374386	-715.347724	294.736520	65.929107	-690.583725	264.103173	86.262641	-736.725846	191.366643	85.230913	-853.357939	106.834945	14.522951	-946.875805	66.905367	25.593662	-733.385078	53.257894	84.509326	-720.875209	56.053763	36.461605	-731.861557	588.219896	679.310321	-674.086466	589.856350	708.221207	-658.668610	620.566418	717.691870	-608.801064	535.371736	694.158553	-510.298740	499.599606	692.212925	-428.618724	358.616383	557.077273	-505.210021	296.379846	508.570091	-456.043675	293.552026	509.397468	-430.469828	275.883965	461.927367	-492.320750	200.914965	403.760379	-518.508111	199.726611	308.985795	-323.275701	175.405315	419.579011	-345.798064	156.985275	446.660675	-405.367752	117.975722	450.756607	
709	3.540000	-417.796021	1332.552805	714.236139	-522.394267	1353.546590	549.519846	-557.404456	1328.951565	669.979107	-609.721909	1243.642327	595.290928	-867.787553	1005.080699	560.195846	-550.195749	1094.190964	588.252044	-516.858893	1188.524667	489.169745	-430.868417	1073.499661	376.943553	-392.064235	1067.215308	405.908418	-381.767532	1025.197614	364.666333	-298.336644	932.316507	353.786776	-321.102991	881.771974	408.162563	-177.883209	1046.597314	548.153599	-116.638670	1012.872955	521.993524	-146.851447	1109.556687	541.121414	-573.404005	1124.323041	758.310045	-733.385092	1033.251160	813.759690	-742.927930	994.582940	788.325458	-794.194697	1001.663515	818.199259	-920.702049	945.982446	806.782592	-941.968467	977.365110	746.511544	-941.282267	704.095040	710.704959	-1007.317595	715.933142	729.892851	-947.339836	638.908278	752.339757	-757.982383	763.878548	612.660338	-919.749492	901.208031	536.736654	-924.832969	881.811763	500.260061	-929.473250	861.464726	554.868303	-723.858321	677.810825	235.839829	-665.882457	619.190747	214.670002	-623.584953	627.543469	235.410018	-675.279007	561.246825	196.300799	-650.213286	279.114912	125.910102	-711.382785	294.215834	66.293930	-686.882627	263.179284	86.241064	-734.138758	191.167424	85.703881	-852.641106	108.986717	15.614164	-946.602674	70.329651	27.140329	-732.765974	52.891504	84.379064	-720.691457	55.946283	36.316356	-710.503974	589.758803	684.902497	-652.685545	591.517695	713.817525	-637.331887	622.233373	723.088906	-587.369683	537.011003	699.542724	-488.525250	501.062248	697.619463	-397.209958	358.883810	567.787554	-469.203371	293.221964	517.900078	-420.278338	292.030618	520.624320	-392.282085	274.451892	474.649501	-448.678976	196.043938	415.311436	-471.279034	192.586314	319.952248	-279.863151	176.665189	438.467298	-302.782280	157.796301	464.694905	-361.154901	116.801551	467.097377	
710	3.545000	-395.901374	1335.090748	727.006835	-499.170508	1355.732581	561.472597	-535.028620	1331.525465	681.626912	-587.039199	1245.473065	606.916594	-844.037185	1006.823163	567.759198	-526.974689	1095.818588	599.966439	-493.272281	1191.343418	501.567028	-406.925446	1078.514475	387.590796	-368.281157	1071.917936	417.007764	-357.450682	1030.723335	374.894400	-273.395019	938.776761	362.069325	-296.260003	886.822813	415.316061	-153.332301	1048.288768	559.471150	-92.116915	1015.117056	532.708309	-122.514212	1111.320424	553.605359	-552.280682	1125.666983	770.109617	-713.737175	1036.106585	823.358248	-723.160814	997.410032	798.090063	-774.843410	1004.966141	826.960065	-901.930340	950.149194	813.101917	-922.062582	982.736807	752.955369	-920.502556	710.144316	711.066767	-986.766654	721.509731	730.276540	-926.279181	644.039023	751.109497	-734.509453	765.675546	618.131692	-896.022315	903.520136	543.196465	-901.031280	884.418347	506.550951	-905.954372	863.724906	560.997062	-707.837089	678.249003	239.454197	-652.528934	617.683171	216.797022	-609.559057	624.609456	236.322487	-664.347650	560.188843	198.694287	-645.943699	278.026304	126.072261	-707.476991	294.233553	67.139177	-683.263245	262.806786	86.721168	-731.543354	191.466577	86.537208	-851.700007	111.578870	16.725734	-946.102410	74.405363	28.579692	-732.101633	52.486108	84.281959	-720.454128	55.869716	36.256321	-689.097476	591.380481	690.654161	-631.201468	593.117869	719.519220	-615.812260	623.794467	728.558140	-566.030558	538.383244	705.010348	-466.949508	501.968539	702.975716	-366.416104	358.870407	578.697079	-433.778446	290.147086	527.663545	-385.213305	290.479526	532.213104	-354.858361	273.068693	487.827579	-405.830530	191.627608	427.597757	-424.736506	186.108200	331.709875	-237.587390	177.994327	457.714324	-260.924554	158.688359	483.123132	-318.130233	115.907239	483.997041	
711	3.550000	-374.116190	1338.138265	740.282696	-476.176917	1358.449659	574.029370	-512.801435	1334.618930	693.909068	-564.513627	1247.729634	619.041364	-820.160690	1008.809228	575.493542	-503.745540	1097.996498	612.158604	-469.752058	1194.670344	514.347235	-383.631639	1083.684981	398.053310	-345.120096	1076.644470	427.806536	-333.999686	1036.272324	384.754241	-249.746523	945.011396	369.695339	-272.781470	891.693492	421.721638	-129.430915	1049.045135	569.936466	-68.406975	1016.234475	542.486812	-98.567764	1112.028305	565.276198	-531.288326	1127.389549	782.358363	-694.207110	1039.424472	833.356104	-703.514179	1000.658022	808.267025	-755.628768	1008.767355	836.094180	-883.240661	954.790162	819.832079	-902.089566	988.401170	759.633052	-899.042345	716.520001	712.267605	-965.605971	727.368627	731.209412	-904.632656	649.602223	750.793564	-710.994238	767.757093	623.921573	-872.044419	906.121638	549.689231	-876.887987	887.327827	512.854991	-882.177425	866.269632	567.123942	-691.434444	679.276142	243.621241	-638.991498	616.736436	219.613608	-595.450606	622.089328	238.021447	-653.324063	559.826858	201.713842	-641.820433	277.587269	126.883298	-703.545403	294.872241	68.473398	-679.646915	263.068055	87.722480	-728.853207	192.341708	87.719679	-850.450949	114.679146	17.849015	-945.287684	79.227189	29.889507	-731.392933	52.030627	84.212071	-720.156295	55.822162	36.277381	-667.604369	593.034258	696.563960	-609.605454	594.605871	725.333779	-594.087000	625.201234	734.122769	-544.738175	539.458709	710.574185	-445.498221	502.323088	708.328587	-336.241314	358.591442	589.755373	-399.029591	287.134216	537.835022	-350.908241	288.885486	544.090792	-318.287282	271.723922	501.352108	-363.945670	187.614297	440.506734	-379.153712	180.255585	344.172123	-196.539929	179.330625	477.102726	-220.289909	159.592045	501.740928	-276.396337	115.228966	501.310116	
